<svg xmlns="http://www.w3.org/2000/svg" xmlns:xlink="http://www.w3.org/1999/xlink" xmlns:inkscape="http://www.inkscape.org/namespaces/inkscape" version="1.1" width="1181" height="705" viewBox="0 0 1181 705">
<defs>
<path id="font_0_1" d="M.21598816 .5676117 .34700013 0H.49699403L.6259918 .5676117V0H.776001V.7285156H.5499878L.42199708 .14889527 .2899933 .7285156H.06599426V0H.21598816V.5676117Z"/>
<path id="font_0_2" d="M.5239868 .22558594C.5249939 .23757935 .5249939 .24258423 .5249939 .24957276 .5249939 .3035736 .5169983 .35365296 .5039978 .39172364 .46798707 .4898224 .3809967 .5488281 .27198792 .5488281 .116989139 .5488281 .021987915 .43681336 .021987915 .25558473 .021987915 .08255005 .115997318-.0234375 .2689972-.0234375 .3899994-.0234375 .48799134 .044555665 .5189972 .15156555H.3809967C.3639984 .108566287 .32499696 .08355713 .27398683 .08355713 .23399353 .08355713 .20199585 .10055542 .18199158 .13056946 .16899109 .15057373 .1639862 .1745758 .1619873 .22558594H.5239868M.1639862 .318573C.17298889 .40174867 .20799256 .44181825 .269989 .44181825 .33399964 .44181825 .37199403 .39874269 .3789978 .318573H.1639862Z"/>
<path id="font_0_3" d="M.06298828 .54003909V0H.20298767V.3240204C.20298767 .38783265 .24699402 .42982484 .31599427 .42982484 .37599183 .42982484 .4059906 .39683534 .4059906 .33285523V0H.54599V.36184693C.54599 .48182679 .48098756 .5488281 .36499024 .5488281 .2919922 .5488281 .24299622 .52282717 .20298767 .4618225V.54003909H.06298828Z"/>
<path id="font_0_4" d="M.54100039 0V.54003909H.40098573V.20201111C.40098573 .13760376 .35699464 .09555054 .28799439 .09555054 .22799683 .09555054 .19799805 .127594 .19799805 .19265747V.54003909H.057998659V.16363526C.057998659 .043548585 .12298584-.0234375 .23899842-.0234375 .31199647-.0234375 .36099244 .0025482178 .40098573 .06355286V0H.54100039Z"/>
<path id="font_0_5" d="M.6069946 .5070648C.60598757 .6582031 .5049896 .74121096 .32099916 .74121096 .1459961 .74121096 .04499817 .6592102 .04499817 .5170746 .04499817 .40393067 .101989749 .3488617 .25 .3208313L.35198976 .30081178C.45199586 .28178407 .4889984 .25375367 .4889984 .19467163 .4889984 .13360596 .43299867 .09655762 .34199525 .09655762 .23999024 .09655762 .18299866 .13960266 .17799378 .2177124H.03199768C.040985109 .061553956 .147995-.0234375 .33399964-.0234375 .5219879-.0234375 .6329956 .06355286 .6329956 .21269226 .6329956 .32783509 .57499697 .38790895 .43998719 .41394044L.32598878 .43597413C.21899414 .45700074 .18798828 .47802735 .18798828 .5310974 .18798828 .5861664 .23599243 .62120059 .31399537 .62120059 .40899659 .62120059 .46199037 .5811615 .46699525 .5070648H.6069946Z"/>
<path id="font_0_6" d="M.05899048 .7285156V0H.19898987V.05496216C.23298645 .0015563965 .27999879-.0234375 .34799195-.0234375 .47698976-.0234375 .57499697 .0995636 .57499697 .2626953 .57499697 .33573915 .5529938 .4098053 .5169983 .4618225 .47999574 .5148163 .4139862 .5488281 .34799195 .5488281 .27999879 .5488281 .23298645 .52381899 .19898987 .46981813V.7285156H.05899048M.31698609 .43182374C.38598634 .43182374 .43499757 .36177064 .43499757 .26168824 .43499757 .16261292 .3869934 .093551639 .31698609 .093551639 .24598694 .093551639 .19898987 .16061402 .19898987 .2646942 .19898987 .36376954 .24699402 .43182374 .31698609 .43182374Z"/>
<path id="font_0_7" d="M.5049896 .36576844C.5029907 .47982789 .4149933 .5488281 .269989 .5488281 .1329956 .5488281 .04798889 .47982789 .04798889 .36875917 .04798889 .33273316 .05899048 .30171205 .07798767 .28070069 .09700012 .26168824 .11399841 .25268556 .1659851 .235672L.33299256 .18362427C.36799623 .17262268 .37998963 .16160584 .37998963 .1395874 .37998963 .10656738 .34098817 .08654785 .27598573 .08654785 .23899842 .08654785 .21099854 .092559818 .19299317 .10557556 .17799378 .11657715 .17199707 .12757874 .1659851 .15660095H.0289917C.032989503 .03755188 .11999512-.0234375 .28399659-.0234375 .35899354-.0234375 .41600038-.007446289 .45599366 .024551392 .49598695 .056549074 .519989 .10656738 .519989 .15960694 .519989 .22966004 .4850006 .27468873 .4139862 .29571534L.23699951 .34675599C.19799805 .35876466 .18798828 .36676026 .18798828 .3887787 .18798828 .41880799 .21998596 .4388275 .2689972 .4388275 .33599855 .4388275 .36898805 .41479493 .36999513 .36576844H.5049896Z"/>
<path id="font_0_8" d="M.3939972 .54003909 .28199769 .1468811 .16299439 .54003909H.008987427L.20999146-.02218628C.20999146-.078201297 .1749878-.11621094 .12298584-.11621094 .11199951-.11621094 .102996829-.114212039 .085998538-.11021423V-.21522522C.10699463-.21821594 .11898804-.21922302 .13598633-.21922302 .17199707-.21922302 .21199036-.21221924 .23699951-.20222473 .27598573-.18621826 .29299928-.16421509 .31599427-.09921265L.5379944 .54003909H.3939972Z"/>
<path id="font_0_9" d="M.30099488 .52853396H.22299195V.6735382H.08299255V.52853396H.01399231V.43554688H.08299255V.1035614C.08299255 .018554688 .12799073-.0234375 .21998596-.0234375 .2519989-.0234375 .2749939-.020446778 .30099488-.012451172V.08555603C.2869873 .08355713 .27999879 .08255005 .2689972 .08255005 .23199463 .08255005 .22299195 .093551639 .22299195 .14155579V.43554688H.30099488V.52853396Z"/>
<path id="font_0_10" d="M.05999756 .54003909V0H.19999695V.3240204C.19999695 .39083863 .23599243 .42982484 .29599 .42982484 .34298707 .42982484 .37199403 .40283204 .37199403 .35984803V0H.5119934V.3238678C.5119934 .38983155 .5479889 .42982484 .60798647 .42982484 .6549988 .42982484 .6839905 .40283204 .6839905 .35984803V0H.82398989V.38183595C.82398989 .4868164 .7599945 .5488281 .6519928 .5488281 .58299258 .5488281 .5359955 .52482607 .49398805 .4688263 .46798707 .51982119 .4139862 .5488281 .34700013 .5488281 .2849884 .5490265 .24499512 .5290375 .19898987 .47303773V.54003909H.05999756Z"/>
<path id="font_1_1" d="M.46798707 0 .6729889 .61058047V0H.7609863V.7285156H.6319885L.41999818 .093948367 .20399475 .7285156H.07499695V0H.16299439V.61058047L.36999513 0H.46798707Z"/>
<path id="font_1_2" d="M.5349884 .048553468C.526001 .046554567 .5219879 .046554567 .5169983 .046554567 .48799134 .046554567 .47200013 .061569215 .47200013 .08760071V.39598084C.47200013 .48905946 .4039917 .5390625 .2749939 .5390625 .19799805 .5390625 .13699341 .5170593 .100997928 .47805787 .07699585 .45103456 .066986087 .42100526 .06498718 .36894227H.14898682C.1559906 .43301393 .19400025 .4620514 .27198792 .4620514 .34799195 .4620514 .3889923 .434021 .3889923 .3839569V.36193849C.3880005 .32588197 .36999513 .3128662 .3019867 .30386354 .18399048 .28884889 .1659851 .28483583 .13398743 .27182008 .07299805 .24578858 .041992189 .19973755 .041992189 .13165283 .041992189 .03656006 .10798645-.0234375 .21398926-.0234375 .27999879-.0234375 .33299256-.00044250489 .3919983 .05355835 .397995-.00044250489 .42399598-.0234375 .47799684-.0234375 .49598695-.0234375 .5069885-.021438599 .5349884-.014450073V.048553468M.3889923 .16468811C.3889923 .13665772 .3809967 .119644168 .35598756 .09661865 .32199098 .06556702 .2809906 .049560548 .23199463 .049560548 .16699219 .049560548 .1289978 .080596927 .1289978 .13365174 .1289978 .1887207 .16499329 .2167511 .25498963 .22976685 .34399415 .24179077 .36099244 .24578858 .3889923 .25880433V.16468811Z"/>
<path id="font_1_3" d="M.1499939 .52441409H.066986087V0H.1499939V.52441409M.1499939 .7285156H.06599426V.62350466H.1499939V.7285156Z"/>
<path id="font_1_4" d="M.069992069 .52441409V0H.1539917V.2892151C.1539917 .39604188 .20999146 .4660492 .29599 .4660492 .3619995 .4660492 .4039917 .42604066 .4039917 .3630371V0H.4869995V.39604188C.4869995 .4830475 .42199708 .5390625 .32099916 .5390625 .24299622 .53941348 .19299317 .5093994 .14698792 .43640138V.52441409H.069992069Z"/>
<path id="font_1_5" d="M.5130005 .23374939C.5130005 .31376649 .5069885 .36186219 .49198915 .40093995 .45799256 .48706056 .37799073 .5390625 .27999879 .5390625 .13398743 .5390625 .039993287 .42799378 .039993287 .25474549 .039993287 .081588748 .12998963-.0234375 .27799989-.0234375 .397995-.0234375 .48098756 .044555665 .5019989 .15867615H.41799928C.394989 .08959961 .34799195 .05355835 .2809906 .05355835 .22799683 .05355835 .18299866 .07757568 .15499878 .12162781 .1349945 .1516571 .12799073 .18170166 .1269989 .23374939H.5130005M.1289978 .3017578C.13598633 .39894105 .19499207 .4620514 .2789917 .4620514 .3639984 .4620514 .4229889 .39593507 .4229889 .3017578H.1289978Z"/>
<path id="font_1_6" d="M.48199464 0V.52441409H.39898683V.22717285C.39898683 .11968994 .34298707 .049560548 .2559967 .049560548 .18998719 .049560548 .147995 .08963013 .147995 .15275574V.52441409H.06498718V.11968994C.06498718 .032562257 .12998963-.0234375 .23199463-.0234375 .30899049-.023010254 .35798646 .0039978029 .40699769 .07299805V0H.48199464Z"/>
<path id="font_1_7" d="M.59599307 .51504519C.59599307 .565094 .59298709 .5791168 .57699587 .6131439 .5369873 .6972046 .45199586 .74121096 .32899476 .74121096 .16899109 .74121096 .069992069 .65919497 .069992069 .52705386 .069992069 .43795777 .116989139 .38189698 .21299744 .35687257L.3939972 .30882264C.4869995 .2848053 .5279999 .24775696 .5279999 .19070435 .5279999 .1516571 .5069885 .11161804 .47599793 .08958435 .44699098 .068573 .40098573 .058547975 .34199525 .058547975 .2619934 .058547975 .20899964 .07757568 .17399597 .11961365 .14698792 .1516571 .1349945 .18669129 .13598633 .23173523H.04798889C.04899597 .16467285 .06199646 .12062073 .09098816 .080581668 .14099121 .011550903 .22499085-.0234375 .33599855-.0234375 .4229889-.0234375 .49398805-.0034484864 .54100039 .032562257 .58999636 .07156372 .62098696 .13664246 .62098696 .19970703 .62098696 .28981019 .5649872 .35588075 .46598817 .38290406L.2829895 .43196107C.19499207 .4559784 .16299439 .4840088 .16299439 .5400696 .16299439 .614151 .22799683 .663208 .32598878 .663208 .44198609 .663208 .5069885 .611145 .5079956 .51504519H.59599307Z"/>
<path id="font_1_8" d="M.2539978 .52441409H.16799927V.66841128H.084991458V.52441409H.01399231V.45640565H.084991458V.059570314C.084991458 .005554199 .12098694-.0234375 .18598938-.0234375 .20799256-.0234375 .22599793-.021438599 .2539978-.016448975V.05355835C.24198914 .05055237 .23098755 .049560548 .21398926 .049560548 .17799378 .049560548 .16799927 .059570314 .16799927 .09664917V.45640565H.2539978V.52441409Z"/>
<path id="font_1_9" d="M.4039917 .52441409V.44841004C.3619995 .51104739 .31599427 .5390625 .25 .5390625 .12298584 .5390625 .034988405 .42100526 .034988405 .25279237 .034988405 .16468811 .055999757 .100616458 .100997928 .047561647 .13999939 .0015563965 .18998719-.0234375 .24398804-.0234375 .30699159-.0234375 .35198976 .004562378 .3959961 .0705719V.043548585C.3959961-.096450809 .35699464-.1484375 .25299073-.1484375 .18199158-.1484375 .14498902-.12043762 .13699341-.060440065H.051986696C.05999756-.15744019 .13699341-.21844483 .25099183-.21844483 .32798768-.21844483 .3919983-.19345093 .42599488-.15144348 .46598817-.10244751 .48098756-.03744507 .48098756 .08560181V.52441409H.4039917M.2579956 .4620514C.34599305 .4620514 .3959961 .38796998 .3959961 .25480653 .3959961 .12763977 .34498597 .05355835 .2579956 .05355835 .17199707 .05355835 .12199402 .12864685 .12199402 .25779725 .12199402 .3859558 .17199707 .4620514 .2579956 .4620514Z"/>
<path id="font_1_10" d="M.43798829 .37794496C.43699647 .48104859 .36898805 .5390625 .24798584 .5390625 .12599182 .5390625 .04699707 .47605897 .04699707 .37895204 .04699707 .29685975 .08898926 .25779725 .21299744 .22776795L.29100038 .20874024C.34899903 .19473267 .37199403 .17370606 .37199403 .13665772 .37199403 .08659363 .32299806 .05355835 .25 .05355835 .20498657 .05355835 .16699219 .0665741 .1459961 .08859253 .1329956 .10362244 .1269989 .118637088 .12199402 .15568543H.033996583C.037994386 .034561159 .10598755-.0234375 .24299622-.0234375 .375-.0234375 .45899964 .041549684 .45899964 .14266968 .45899964 .22076416 .4149933 .2638092 .31098939 .28884889L.23098755 .30786134C.16299439 .32388307 .13398743 .34591676 .13398743 .3829651 .13398743 .4320221 .1769867 .4620514 .24499512 .4620514 .31199647 .4620514 .34799195 .43301393 .34999085 .37794496H.43798829Z"/>
<path id="font_1_11" d="M.6619873 .5030365C.6329956 .663208 .54100039 .74121096 .3809967 .74121096 .2829895 .74121096 .20399475 .7102051 .1499939 .65019229 .083999637 .57810977 .04798889 .47399903 .04798889 .35588075 .04798889 .23574829 .084991458 .1326294 .15299988 .061553956 .20999146 .0035552979 .28199769-.0234375 .3769989-.0234375 .5549927-.0234375 .6549988 .0725708 .6769867 .2657776H.58099368C.57299807 .21572876 .5629883 .1816864 .5479889 .15264893 .5179901 .09259033 .45599366 .058547975 .37799073 .058547975 .23298645 .058547975 .14099121 .17468262 .14099121 .35687257 .14099121 .54408267 .22799683 .6592102 .36999513 .6592102 .42900086 .6592102 .48399354 .6421814 .5139923 .6131439 .54100039 .5881195 .55599978 .5580902 .5669861 .5030365H.6619873Z"/>
<path id="font_1_12" d="M.27198792 .5390625C.12399292 .5390625 .035995485 .434021 .035995485 .25779725 .035995485 .080581668 .12399292-.0234375 .272995-.0234375 .42099-.0234375 .5099945 .081588748 .5099945 .25379945 .5099945 .4360199 .42399598 .5390625 .27198792 .5390625M.272995 .4620514C.36698915 .4620514 .4229889 .384964 .4229889 .25480653 .4229889 .13064575 .36499024 .05355835 .272995 .05355835 .17999268 .05355835 .12298584 .13064575 .12298584 .25779725 .12298584 .384964 .17999268 .4620514 .272995 .4620514Z"/>
<path id="font_1_13" d="M.74398806 0 .92900088 .7285156H.82499697L.69099429 .13691712 .5249939 .7285156H.4249878L.2630005 .13691712 .12599182 .7285156H.021987915L.20899964 0H.31098939L.47399903 .59858706 .6419983 0H.74398806Z"/>
<path id="font_1_14" d="M.068984989 .52441409V0H.15299988V.27220155C.1539917 .39831544 .20599365 .45436097 .32099916 .45135499V.5364075C.30699159 .5380554 .29899598 .5390625 .2889862 .5390625 .23498535 .5390625 .19400025 .50704959 .1459961 .4290619V.52441409H.068984989Z"/>
<path id="font_1_15" d="M.2849884 0 .48599244 .52441409H.3919983L.24398804 .09906006 .10398865 .52441409H.009994507L.19400025 0H.2849884Z"/>
<path id="font_1_16" d="M.1519928 .7285156H.067993167V0H.1519928V.7285156Z"/>
<path id="font_1_17" d="M.47099305 .34791566C.46699525 .39897157 .45599366 .4320221 .43598939 .46105958 .3999939 .51005557 .33699037 .5390625 .2639923 .5390625 .12199402 .5390625 .0309906 .4270172 .0309906 .25279237 .0309906 .08358765 .12098694-.0234375 .2630005-.0234375 .3880005-.0234375 .46699525 .05155945 .47698976 .17970276H.3929901C.3789978 .09561157 .33599855 .05355835 .2649994 .05355835 .17298889 .05355835 .117996219 .12864685 .117996219 .25279237 .117996219 .3839569 .17199707 .4620514 .2630005 .4620514 .33299256 .4620514 .3769989 .42100526 .3869934 .34791566H.47099305Z"/>
<path id="font_1_18" d="M.47399903 .21887207 .548996 0H.6529999L.39698792 .7285156H.2769928L.016998291 0H.115997318L.19299317 .21887207H.47399903M.44799806 .296875H.21598816L.33599855 .62857058 .44799806 .296875Z"/>
<path id="font_1_19" d="M.49499513 .7285156H.4119873V.4580536C.3769989 .51104739 .32099916 .5390625 .25099183 .5390625 .114990238 .5390625 .025985718 .43000794 .025985718 .26280213 .025985718 .08558655 .11199951-.0234375 .2539978-.0234375 .32598878-.0234375 .37599183 .0035552979 .42099 .068573V0H.49499513V.7285156M.2649994 .46105958C.35499574 .46105958 .4119873 .3820343 .4119873 .25602723 .4119873 .13465882 .35398866 .05455017 .2659912 .05455017 .17399597 .05455017 .11299133 .13565064 .11299133 .25779725 .11299133 .3799591 .17399597 .46105958 .2649994 .46105958Z"/>
<path id="font_1_20" d="M.3880005 .52441409 .24299622 .11628723 .10899353 .52441409H.019989014L.19699097-.001739502 .16499329-.08476257C.15098572-.121780399 .1329956-.13578797 .09799194-.13578797 .083999637-.13578797 .07199097-.1337738 .053985597-.129776V-.20478821C.070999149-.21377564 .08799744-.21777344 .10998535-.21777344 .13699341-.21777344 .1659851-.20878601 .18798828-.19277954 .21398926-.17378235 .22898865-.15177918 .24499512-.10977173L.47799684 .52441409H.3880005Z"/>
<path id="font_1_21" d="M.069992069 .52441409V0H.1539917V.32925416C.1539917 .40504457 .20899964 .4660492 .2769928 .4660492 .33898927 .4660492 .37399293 .4280548 .37399293 .3610382V0H.45799256V.32904054C.45799256 .40504457 .5130005 .4660492 .58099368 .4660492 .6419983 .4660492 .6779938 .42704774 .6779938 .3610382V0H.7619934V.3930359C.7619934 .48706056 .70799258 .5390625 .6100006 .5390625 .5399933 .5390625 .49798585 .51805117 .44898988 .4590454 .41799928 .5150604 .37599183 .5390625 .30799867 .5390625 .23799134 .53941348 .19099427 .5134125 .14698792 .45040895V.52441409H.069992069Z"/>
<path id="font_1_22" d="M.22898865 .7285156-.008010864-.01953125H.04699707L.28399659 .7285156H.22898865Z"/>
<path id="font_1_23" d="M0 0Z"/>
<path id="font_0_11" d="M.5069885 .33103944V0H.6569977V.7285156H.5059967V.4560547H.21798706V.7285156H.067993167V0H.21798706V.33103944H.5069885Z"/>
<path id="font_0_12" d="M.40499879 0H.54499819V.7285156H.40499879V.46981813C.36999513 .52381899 .32398988 .5488281 .2559967 .5488281 .1269989 .5488281 .0289917 .42481996 .0289917 .2618866 .0289917 .18891907 .050994874 .11495972 .08699036 .06297302 .12399292 .009552002 .18998719-.0234375 .2559967-.0234375 .32398988-.0234375 .36999513 .0005493164 .40499879 .05455017V0M.2869873 .43182374C.35798646 .43182374 .40499879 .36384584 .40499879 .2598877 .40499879 .16160584 .35699464 .093551639 .2869873 .093551639 .21699524 .093551639 .16899109 .16261292 .16899109 .26168824 .16899109 .36276246 .21699524 .43182374 .2869873 .43182374Z"/>
<path id="font_1_24" d="M.18299866 .33203126H.5309906V.41401673H.18299866V.6465149H.57899478V.7285156H.08999634V0H.18299866V.33203126Z"/>
<path id="font_1_25" d="M.18399048 .30862428H.41299439C.46998597 .30862428 .5149994 .32562257 .55400088 .36061097 .59799197 .4006195 .61698916 .44758607 .61698916 .5145569 .61698916 .6515045 .5359955 .7285156 .3919983 .7285156H.09098816V0H.18399048V.30862428M.18399048 .390625V.6465149H.37799073C.46699525 .6465149 .519989 .598526 .519989 .51856997 .519989 .43859864 .46699525 .390625 .37799073 .390625H.18399048Z"/>
<path id="font_0_13" d="M.22399903 .31347657H.54299929V.43847657H.22399903V.60350039H.58599856V.7285156H.07398987V0H.22399903V.31347657Z"/>
<path id="font_0_14" d="M.20698548 .54003909H.066986087V0H.20698548V.54003909M.20698548 .7285156H.066986087V.60350039H.20698548V.7285156Z"/>
<path id="font_0_15" d="M.20698548 .7285156H.066986087V0H.20698548V.7285156Z"/>
<path id="font_1_26" d="M.19099427 .10398865H.08699036V0H.19099427V.10398865Z"/>
<path id="font_0_16" d="M.22898865 .31347657H.5779877V.43847657H.22898865V.60350039H.60598757V.7285156H.07899475V0H.6239929V.125H.22898865V.31347657Z"/>
<path id="font_0_17" d="M.34999085 0 .5359955 .54003909H.3880005L.2789917 .14500427 .1619873 .54003909H.01399231L.20298767 0H.34999085Z"/>
<path id="font_0_18" d="M.06298828 .54003909V0H.20298767V.28701783C.20298767 .3688202 .24398804 .40982057 .32598878 .40982057 .34098817 .40982057 .35099793 .40881349 .36999513 .40582276V.54782107C.3619995 .5488281 .35899354 .5488281 .35299684 .5488281 .2889862 .5488281 .23399353 .5068207 .20298767 .43382264V.54003909H.06298828Z"/>
<path id="font_0_19" d="M.30099488 .5488281C.13598633 .5488281 .034988405 .43981935 .034988405 .26268006 .034988405 .08454895 .13598633-.0234375 .3019867-.0234375 .46699525-.0234375 .56900027 .08454895 .56900027 .25868226 .56900027 .44181825 .46998597 .5488281 .30099488 .5488281M.3019867 .43582154C.3789978 .43582154 .42900086 .36676026 .42900086 .26068116 .42900086 .15960694 .3769989 .08955383 .3019867 .08955383 .22599793 .08955383 .1749878 .15861511 .1749878 .26268006 .1749878 .36676026 .22599793 .43582154 .3019867 .43582154Z"/>
<path id="font_1_27" d="M.3889923 .74121096C.17999268 .74121096 .037994386 .5871277 .037994386 .35887147 .037994386 .12963867 .1789856-.0234375 .3899994-.0234375 .47898866-.0234375 .5569916 .0035552979 .6159973 .05355835 .69499209 .12062073 .74198916 .23374939 .74198916 .35287477 .74198916 .5881195 .6029968 .74121096 .3889923 .74121096M.3889923 .6592102C.5469971 .6592102 .6489868 .5400696 .6489868 .35487367 .6489868 .17868042 .5439911 .058547975 .3899994 .058547975 .23399353 .058547975 .1309967 .17868042 .1309967 .35887147 .1309967 .53907778 .23399353 .6592102 .3889923 .6592102Z"/>
<path id="font_2_1" d="M.2579956 .52441409H.17098999V.6064148C.17098999 .64141848 .18998719 .65940859 .22898865 .65940859 .23599243 .65940859 .23899842 .65940859 .2579956 .65841677V.727417C.23899842 .7314148 .22799683 .7324219 .21099854 .7324219 .13398743 .7324219 .08799744 .6884155 .08799744 .6134186V.52441409H.017990113V.45640565H.08799744V0H.17098999V.45640565H.2579956V.52441409M.5359955 .52441409H.44898988V.6064148C.44898988 .64141848 .46798707 .65940859 .5069885 .65940859 .5139923 .65940859 .5169983 .65940859 .5359955 .65841677V.727417C.5169983 .7314148 .5059967 .7324219 .4889984 .7324219 .4119873 .7324219 .3659973 .6884155 .3659973 .6134186V.52441409H.29599V.45640565H.3659973V0H.44898988V.45640565H.5359955V.52441409M.70599368 .52441409H.6230011V0H.70599368V.52441409M.70599368 .7285156H.621994V.62350466H.70599368V.7285156Z"/>
<path id="font_1_28" d="M.18598938 .31350709H.42599488C.5089874 .31350709 .54599 .27355958 .54599 .18371582L.54499819 .11882019C.54499819 .073898319 .5529938 .029968262 .56599429 0H.67900088V.022994996C.6439972 .046951295 .6369934 .072906497 .6349945 .16973877 .6339874 .28953553 .61499026 .3255005 .5359955 .35949708 .6179962 .40049745 .651001 .44950868 .651001 .5335083 .651001 .6595154 .57299807 .7285156 .42900086 .7285156H.09298706V0H.18598938V.31350709M.18598938 .3955078V.6465149H.41099549C.46299745 .6465149 .49299623 .638504 .5159912 .61849978 .54100039 .59750369 .55400088 .5644989 .55400088 .52149966 .55400088 .43449403 .5099945 .3955078 .41099549 .3955078H.18598938Z"/>
<path id="font_1_29" d="M.053985597-.21844483H.13798523V.05455017C.18199158 .0005493164 .23098755-.0234375 .29899598-.0234375 .43499757-.0234375 .522995 .08558655 .522995 .25279237 .522995 .4290161 .43699647 .5390625 .2979889 .5390625 .22698975 .53941348 .16999817 .5074005 .1309967 .44540406V.52441409H.053985597V-.21844483M.28399659 .46105958C.37599183 .46105958 .43598939 .3799591 .43598939 .25480653 .43598939 .13565064 .375 .05455017 .28399659 .05455017 .19499207 .05455017 .13798523 .13465882 .13798523 .25779725 .13798523 .38095094 .19499207 .46105958 .28399659 .46105958Z"/>
<path id="font_1_30" d="M.069992069 .7285156V0H.15299988V.28903199C.15299988 .39604188 .20899964 .4660492 .29499818 .4660492 .32299806 .4660492 .34899903 .4580536 .36898805 .4430542 .3929901 .42504884 .40299989 .40003968 .40299989 .3630371V0H.48599244V.39604188C.48599244 .48405458 .4229889 .5390625 .32099916 .5390625 .24699402 .5390625 .20199585 .51605227 .15299988 .45205689V.7285156H.069992069Z"/>
<path id="font_1_31" d="M.70899966 .38476563H.40499879V.3027649H.6269989V.28274537C.6269989 .15263367 .5309906 .058547975 .397995 .058547975 .32398988 .058547975 .25698854 .08557129 .21398926 .13261414 .1659851 .18466187 .13699341 .27172853 .13699341 .36175538 .13699341 .5410156 .23899842 .6592102 .3929901 .6592102 .5039978 .6592102 .58399966 .6021118 .60398867 .5079651H.69898989C.6729889 .6562042 .5609894 .74121096 .3939972 .74121096 .30499269 .74121096 .23298645 .7182007 .17599488 .6712036 .09098816 .60110476 .04399109 .4879303 .04399109 .3567505 .04399109 .13261414 .18099976-.0234375 .37799073-.0234375 .47698976-.0234375 .5549927 .013549805 .6269989 .09259033L.6499939-.0044403078H.70899966V.38476563Z"/>
<path id="font_0_20" d="M.21299744 .7285156H.06298828V0H.21299744V.7285156Z"/>
<path id="font_0_21" d="M.5239868 .016555787C.5 .03955078 .49198915 .05555725 .49198915 .08255005V.38278199C.49198915 .4928131 .4169922 .5488281 .2709961 .5488281 .125 .5488281 .04899597 .4868164 .039993287 .36175538H.1749878C.18199158 .4178009 .20498657 .43582154 .27398683 .43582154 .32798768 .43582154 .35499574 .4178009 .35499574 .3817749 .35499574 .36376954 .34599305 .34875489 .33099366 .3397522 .31199647 .32974244 .31199647 .32974244 .24299622 .3187256L.18699646 .30871583C.07998657 .29071046 .027999878 .235672 .027999878 .13859558 .027999878 .041549684 .09298706-.0234375 .19198609-.0234375 .2519989-.0234375 .30599977 .0015563965 .35598756 .05355835 .35598756 .025985718 .35899354 .015991211 .37199403 0H.5239868V.016555787M.35499574 .21655274C.35499574 .13555908 .31498719 .08955383 .24398804 .08955383 .19699097 .08955383 .16799927 .11454773 .16799927 .15455628 .16799927 .19654846 .18998719 .21655274 .24798584 .2285614L.29599 .23754883C.33299256 .24455261 .33898927 .24655152 .35499574 .25456239V.21655274Z"/>
<path id="font_0_22" d="M.5219879 .33773805C.5119934 .46981813 .4249878 .5488281 .2889862 .5488281 .1269989 .5488281 .033996583 .44282533 .033996583 .25868226 .033996583 .08055115 .1269989-.0234375 .2869873-.0234375 .41799928-.0234375 .5089874 .057556154 .5219879 .18663025H.3880005C.37098695 .11657715 .34298707 .08955383 .2869873 .08955383 .21598816 .08955383 .17399597 .15260315 .17399597 .25868226 .17399597 .31072999 .18399048 .35775758 .20098877 .38978578 .21699524 .4197998 .24798584 .43582154 .28799439 .43582154 .34498597 .43582154 .37199403 .40879823 .3880005 .33773805H.5219879Z"/>
<path id="font_0_23" d="M.5009918 .14648438 .548996 0H.7029877L.45098878 .7285156H.2849884L.025985718 0H.1789856L.22799683 .14648438H.5009918M.45999146 .27148438H.269989L.36499024 .5565033 .45999146 .27148438Z"/>
<path id="font_0_24" d="M.6819916 .4820404C.6769867 .54512026 .6639862 .5851593 .6329956 .62620547 .57699587 .7002106 .4869995 .74121096 .37799073 .74121096 .17199707 .74121096 .04399109 .59417727 .04399109 .35787965 .04399109 .12257385 .17098999-.0234375 .37399293-.0234375 .55599978-.0234375 .6759949 .08155823 .68499758 .24873352H.5389862C.5289917 .15562439 .47099305 .10255432 .37799073 .10255432 .2619934 .10255432 .19400025 .19667053 .19400025 .35588075 .19400025 .5170746 .2649994 .61320498 .3829956 .61320498 .46998597 .61320498 .5189972 .57115176 .5389862 .4820404H.6819916Z"/>
<path id="font_0_25" d="M.066986087 .7285156V0H.20698548V.3238678C.20698548 .38583375 .2519989 .42982484 .31498719 .42982484 .34599305 .42982484 .36898805 .41882325 .3849945 .39683534 .397995 .3788452 .40098573 .36384584 .40098573 .3298645V0H.54100039V.36184693C.54100039 .42881776 .522995 .4768219 .48599244 .50782778 .45498658 .5338135 .4099884 .5488281 .36499024 .5488281 .29599 .5488281 .24598694 .52182009 .20698548 .4618225V.7285156H.066986087Z"/>
<path id="font_1_32" d="M.053985597 .7285156V0H.1289978V.06695557C.16899109 .005554199 .22200012-.0234375 .29499818-.0234375 .43299867-.0234375 .522995 .08959961 .522995 .2638092 .522995 .434021 .43798829 .5390625 .29899598 .5390625 .22698975 .5390625 .17599488 .51205447 .13699341 .4530487V.7285156H.053985597M.2829895 .46105958C.37599183 .46105958 .43598939 .3799591 .43598939 .25480653 .43598939 .13565064 .37399293 .05455017 .2829895 .05455017 .19400025 .05455017 .13699341 .13465882 .13699341 .25779725 .13699341 .38095094 .19400025 .46105958 .2829895 .46105958Z"/>
<path id="font_1_33" d="M.6459961 .7285156H.55799868V.13291931L.1769867 .7285156H.07598877V0H.1639862V.59059146L.54100039 0H.6459961V.7285156Z"/>
<path id="font_1_34" d="M.19400025 .7285156H.099990848V0H.19400025V.7285156Z"/>
<path id="font_1_35" d="M.2579956 .52441409H.17098999V.6064148C.17098999 .64141848 .18998719 .65940859 .22898865 .65940859 .23599243 .65940859 .23899842 .65940859 .2579956 .65841677V.727417C.23899842 .7314148 .22799683 .7324219 .21099854 .7324219 .13398743 .7324219 .08799744 .6884155 .08799744 .6134186V.52441409H.017990113V.45640565H.08799744V0H.17098999V.45640565H.2579956V.52441409Z"/>
</defs>
<g>
<path d="M0 0H1181V705H0Z" fill="#ffffff"/>
<path transform="matrix(1,0,0,.999577,0,0)" d="M916.887 46.52V29.262H1036.938V46.52" fill="#ffffff"/>
<path transform="matrix(1,0,0,.999577,0,0)" stroke-width=".750318" stroke-linecap="butt" stroke-miterlimit="10" stroke-linejoin="miter" fill="none" stroke="#000000" d="M916.887 46.52V29.262H1036.938V46.52"/>
<path transform="matrix(1,0,0,.999577,0,0)" stroke-width=".750318" stroke-linecap="butt" stroke-miterlimit="10" stroke-linejoin="miter" fill="none" stroke="#000000" d="M916.887 46.52V306.88H1036.938V46.52"/>
<path transform="matrix(1,0,0,.999577,0,0)" stroke-width=".750318" stroke-linecap="butt" stroke-miterlimit="10" stroke-linejoin="miter" fill="none" stroke="#000000" d="M916.887 46.52H1036.938"/>
<use data-text="M" xlink:href="#font_0_1" transform="matrix(9.003812,0,0,-9,941.32156,40.5)"/>
<use data-text="e" xlink:href="#font_0_2" transform="matrix(9.003812,0,0,-9,948.8217,40.5)"/>
<use data-text="n" xlink:href="#font_0_3" transform="matrix(9.003812,0,0,-9,953.8278,40.5)"/>
<use data-text="u" xlink:href="#font_0_4" transform="matrix(9.003812,0,0,-9,959.32919,40.5)"/>
<use data-text="S" xlink:href="#font_0_5" transform="matrix(9.003812,0,0,-9,964.8305,40.5)"/>
<use data-text="u" xlink:href="#font_0_4" transform="matrix(9.003812,0,0,-9,970.83609,40.5)"/>
<use data-text="b" xlink:href="#font_0_6" transform="matrix(9.003812,0,0,-9,976.3374,40.5)"/>
<use data-text="s" xlink:href="#font_0_7" transform="matrix(9.003812,0,0,-9,981.83877,40.5)"/>
<use data-text="y" xlink:href="#font_0_8" transform="matrix(9.003812,0,0,-9,986.6918,40.5)"/>
<use data-text="s" xlink:href="#font_0_7" transform="matrix(9.003812,0,0,-9,991.5358,40.5)"/>
<use data-text="t" xlink:href="#font_0_9" transform="matrix(9.003812,0,0,-9,996.54196,40.5)"/>
<use data-text="e" xlink:href="#font_0_2" transform="matrix(9.003812,0,0,-9,999.4952,40.5)"/>
<use data-text="m" xlink:href="#font_0_10" transform="matrix(9.003812,0,0,-9,1004.5013,40.5)"/>
<path transform="matrix(1,0,0,.999577,0,0)" stroke-width=".750318" stroke-linecap="butt" stroke-miterlimit="10" stroke-linejoin="miter" fill="none" stroke="#000000" d="M1021.934 93.039H1081.957V141.81H1026.711"/>
<path transform="matrix(1,0,0,.999577,0,0)" d="M1022.773 141.81 1028.023 139.184 1026.711 141.81 1028.023 144.436ZM1022.773 141.81"/>
<path transform="matrix(1,0,0,.999577,0,0)" stroke-width=".750318" stroke-linecap="butt" stroke-miterlimit="10" stroke-linejoin="miter" fill="none" stroke="#000000" d="M1022.773 141.81 1028.023 139.184 1026.711 141.81 1028.023 144.436ZM1022.773 141.81"/>
<path transform="matrix(1,0,0,.999577,0,0)" stroke-width=".750318" stroke-linecap="butt" stroke-miterlimit="10" stroke-linejoin="miter" fill="none" stroke="#000000" d="M1021.934 81.785H1149.488V261.861H1026.711"/>
<path transform="matrix(1,0,0,.999577,0,0)" d="M1022.773 261.861 1028.023 259.235 1026.711 261.861 1028.023 264.487ZM1022.773 261.861"/>
<path transform="matrix(1,0,0,.999577,0,0)" stroke-width=".750318" stroke-linecap="butt" stroke-miterlimit="10" stroke-linejoin="miter" fill="none" stroke="#000000" d="M1022.773 261.861 1028.023 259.235 1026.711 261.861 1028.023 264.487ZM1022.773 261.861"/>
<path transform="matrix(-1,0,0,-.999577,0,0)" d="M-931.895-59.275H-1021.934V-104.29401H-931.895Z" fill="#ffffff"/>
<path transform="matrix(-1,0,0,-.999577,0,0)" stroke-width=".750318" stroke-linecap="butt" stroke-miterlimit="4" stroke-linejoin="miter" fill="none" stroke="#000000" d="M-931.895-59.275H-1021.934V-104.29401H-931.895Z"/>
<use data-text="M" xlink:href="#font_1_1" transform="matrix(9.003812,0,0,-9,955.8987,84.75)"/>
<use data-text="a" xlink:href="#font_1_2" transform="matrix(9.003812,0,0,-9,963.39889,84.75)"/>
<use data-text="i" xlink:href="#font_1_3" transform="matrix(9.003812,0,0,-9,968.40499,84.75)"/>
<use data-text="n" xlink:href="#font_1_4" transform="matrix(9.003812,0,0,-9,970.4038,84.75)"/>
<use data-text="M" xlink:href="#font_1_1" transform="matrix(9.003812,0,0,-9,975.4099,84.75)"/>
<use data-text="e" xlink:href="#font_1_5" transform="matrix(9.003812,0,0,-9,982.9101,84.75)"/>
<use data-text="n" xlink:href="#font_1_4" transform="matrix(9.003812,0,0,-9,987.9162,84.75)"/>
<use data-text="u" xlink:href="#font_1_6" transform="matrix(9.003812,0,0,-9,992.9223,84.75)"/>
<path transform="matrix(-1,0,0,-.999577,0,0)" d="M-931.895-119.301H-1021.934V-164.32H-931.895Z" fill="#ffffff"/>
<path transform="matrix(-1,0,0,-.999577,0,0)" stroke-width=".750318" stroke-linecap="butt" stroke-miterlimit="4" stroke-linejoin="miter" fill="none" stroke="#000000" d="M-931.895-119.301H-1021.934V-164.32H-931.895Z"/>
<use data-text="S" xlink:href="#font_1_7" transform="matrix(9.003812,0,0,-9,949.39346,144.75)"/>
<use data-text="e" xlink:href="#font_1_5" transform="matrix(9.003812,0,0,-9,955.37197,144.75)"/>
<use data-text="t" xlink:href="#font_1_8" transform="matrix(9.003812,0,0,-9,960.297,144.75)"/>
<use data-text="t" xlink:href="#font_1_8" transform="matrix(9.003812,0,0,-9,962.98916,144.75)"/>
<use data-text="i" xlink:href="#font_1_3" transform="matrix(9.003812,0,0,-9,965.44717,144.75)"/>
<use data-text="n" xlink:href="#font_1_4" transform="matrix(9.003812,0,0,-9,967.446,144.75)"/>
<use data-text="g" xlink:href="#font_1_9" transform="matrix(9.003812,0,0,-9,972.4521,144.75)"/>
<use data-text="s" xlink:href="#font_1_10" transform="matrix(9.003812,0,0,-9,977.41317,144.75)"/>
<use data-text="M" xlink:href="#font_1_1" transform="matrix(9.003812,0,0,-9,981.91506,144.75)"/>
<use data-text="e" xlink:href="#font_1_5" transform="matrix(9.003812,0,0,-9,989.4152,144.75)"/>
<use data-text="n" xlink:href="#font_1_4" transform="matrix(9.003812,0,0,-9,994.4213,144.75)"/>
<use data-text="u" xlink:href="#font_1_6" transform="matrix(9.003812,0,0,-9,999.4274,144.75)"/>
<path transform="matrix(1,0,0,.999577,0,0)" stroke-width=".750318" stroke-linecap="butt" stroke-miterlimit="10" stroke-linejoin="miter" fill="none" stroke="#000000" d="M1021.934 213.09H1119.473V70.53H1026.711"/>
<path transform="matrix(1,0,0,.999577,0,0)" d="M1022.773 70.53 1028.023 67.904 1026.711 70.53 1028.023 73.156ZM1022.773 70.53"/>
<path transform="matrix(1,0,0,.999577,0,0)" stroke-width=".750318" stroke-linecap="butt" stroke-miterlimit="10" stroke-linejoin="miter" fill="none" stroke="#000000" d="M1022.773 70.53 1028.023 67.904 1026.711 70.53 1028.023 73.156ZM1022.773 70.53"/>
<path transform="matrix(-1,0,0,-.999577,0,0)" d="M-931.895-179.326H-1021.934V-224.345H-931.895Z" fill="#ffffff"/>
<path transform="matrix(-1,0,0,-.999577,0,0)" stroke-width=".750318" stroke-linecap="butt" stroke-miterlimit="4" stroke-linejoin="miter" fill="none" stroke="#000000" d="M-931.895-179.326H-1021.934V-224.345H-931.895Z"/>
<use data-text="C" xlink:href="#font_1_11" transform="matrix(9.003812,0,0,-9,950.6315,204.75)"/>
<use data-text="o" xlink:href="#font_1_12" transform="matrix(9.003812,0,0,-9,957.1322,204.75)"/>
<use data-text="n" xlink:href="#font_1_4" transform="matrix(9.003812,0,0,-9,962.1383,204.75)"/>
<use data-text="t" xlink:href="#font_1_8" transform="matrix(9.003812,0,0,-9,967.1444,204.75)"/>
<use data-text="e" xlink:href="#font_1_5" transform="matrix(9.003812,0,0,-9,969.5034,204.75)"/>
<use data-text="n" xlink:href="#font_1_4" transform="matrix(9.003812,0,0,-9,974.5095,204.75)"/>
<use data-text="t" xlink:href="#font_1_8" transform="matrix(9.003812,0,0,-9,979.5156,204.75)"/>
<use data-text="W" xlink:href="#font_1_13" transform="matrix(9.003812,0,0,-9,982.0187,204.75)"/>
<use data-text="a" xlink:href="#font_1_2" transform="matrix(9.003812,0,0,-9,990.1851,204.75)"/>
<use data-text="r" xlink:href="#font_1_14" transform="matrix(9.003812,0,0,-9,995.1912,204.75)"/>
<use data-text="n" xlink:href="#font_1_4" transform="matrix(9.003812,0,0,-9,998.1895,204.75)"/>
<path transform="matrix(-1,0,0,-.999577,0,0)" d="M-931.895-239.351H-1021.934V-284.37H-931.895Z" fill="#ffffff"/>
<path transform="matrix(-1,0,0,-.999577,0,0)" stroke-width=".750318" stroke-linecap="butt" stroke-miterlimit="4" stroke-linejoin="miter" fill="none" stroke="#000000" d="M-931.895-239.351H-1021.934V-284.37H-931.895Z"/>
<use data-text="S" xlink:href="#font_1_7" transform="matrix(9.003812,0,0,-9,954.35006,264.75)"/>
<use data-text="a" xlink:href="#font_1_2" transform="matrix(9.003812,0,0,-9,960.29257,264.75)"/>
<use data-text="v" xlink:href="#font_1_15" transform="matrix(9.003812,0,0,-9,965.1186,264.75)"/>
<use data-text="e" xlink:href="#font_1_5" transform="matrix(9.003812,0,0,-9,969.4404,264.75)"/>
<use data-text="S" xlink:href="#font_1_7" transform="matrix(9.003812,0,0,-9,974.44656,264.75)"/>
<use data-text="e" xlink:href="#font_1_5" transform="matrix(9.003812,0,0,-9,980.42507,264.75)"/>
<use data-text="l" xlink:href="#font_1_16" transform="matrix(9.003812,0,0,-9,985.39517,264.75)"/>
<use data-text="e" xlink:href="#font_1_5" transform="matrix(9.003812,0,0,-9,987.394,264.75)"/>
<use data-text="c" xlink:href="#font_1_17" transform="matrix(9.003812,0,0,-9,992.4001,264.75)"/>
<use data-text="t" xlink:href="#font_1_8" transform="matrix(9.003812,0,0,-9,996.974,264.75)"/>
<path transform="matrix(1,0,0,.999577,0,0)" stroke-width=".750318" stroke-linecap="butt" stroke-miterlimit="10" stroke-linejoin="miter" fill="none" stroke="#000000" d="M624.266 100.543H609.258V156.816H619.484"/>
<path transform="matrix(1,0,0,.999577,0,0)" d="M623.426 156.816 618.172 159.443 619.484 156.816 618.172 154.19ZM623.426 156.816"/>
<path transform="matrix(1,0,0,.999577,0,0)" stroke-width=".750318" stroke-linecap="butt" stroke-miterlimit="10" stroke-linejoin="miter" fill="none" stroke="#000000" d="M623.426 156.816 618.172 159.443 619.484 156.816 618.172 154.19ZM623.426 156.816"/>
<path transform="matrix(1,0,0,.999577,0,0)" stroke-width=".750318" stroke-linecap="butt" stroke-miterlimit="10" stroke-linejoin="miter" fill="none" stroke="#000000" d="M619.484 78.033H384.164V89.288H148.84"/>
<path transform="matrix(1,0,0,.999577,0,0)" d="M623.426 78.033 618.172 80.659 619.484 78.033 618.172 75.407ZM623.426 78.033"/>
<path transform="matrix(1,0,0,.999577,0,0)" stroke-width=".750318" stroke-linecap="butt" stroke-miterlimit="10" stroke-linejoin="miter" fill="none" stroke="#000000" d="M623.426 78.033 618.172 80.659 619.484 78.033 618.172 75.407ZM623.426 78.033"/>
<path transform="matrix(1,0,0,.999577,0,0)" d="M144.902 89.288 150.152 86.662 148.84 89.288 150.152 91.914ZM144.902 89.288"/>
<path transform="matrix(1,0,0,.999577,0,0)" stroke-width=".750318" stroke-linecap="butt" stroke-miterlimit="10" stroke-linejoin="miter" fill="none" stroke="#000000" d="M144.902 89.288 150.152 86.662 148.84 89.288 150.152 91.914ZM144.902 89.288"/>
<path transform="matrix(1,0,0,.999577,0,0)" d="M624.266 66.778H714.301V111.797H624.266Z" fill="#ffffff"/>
<path transform="matrix(1,0,0,.999577,0,0)" stroke-width=".750318" stroke-linecap="butt" stroke-miterlimit="4" stroke-linejoin="miter" fill="none" stroke="#000000" d="M624.266 66.778H714.301V111.797H624.266Z"/>
<use data-text="S" xlink:href="#font_1_7" transform="matrix(9.003812,0,0,-9,653.02249,92.25)"/>
<use data-text="e" xlink:href="#font_1_5" transform="matrix(9.003812,0,0,-9,659.001,92.25)"/>
<use data-text="t" xlink:href="#font_1_8" transform="matrix(9.003812,0,0,-9,663.926,92.25)"/>
<use data-text="t" xlink:href="#font_1_8" transform="matrix(9.003812,0,0,-9,666.61819,92.25)"/>
<use data-text="i" xlink:href="#font_1_3" transform="matrix(9.003812,0,0,-9,669.0762,92.25)"/>
<use data-text="n" xlink:href="#font_1_4" transform="matrix(9.003812,0,0,-9,671.075,92.25)"/>
<use data-text="g" xlink:href="#font_1_9" transform="matrix(9.003812,0,0,-9,676.0811,92.25)"/>
<use data-text="s" xlink:href="#font_1_10" transform="matrix(9.003812,0,0,-9,681.0422,92.25)"/>
<path transform="matrix(1,0,0,.999577,0,0)" d="M624.266 134.307H714.301V179.326H624.266Z" fill="#ffffff"/>
<path transform="matrix(1,0,0,.999577,0,0)" stroke-width=".750318" stroke-linecap="butt" stroke-miterlimit="4" stroke-linejoin="miter" fill="none" stroke="#000000" d="M624.266 134.307H714.301V179.326H624.266Z"/>
<use data-text="A" xlink:href="#font_1_18" transform="matrix(9.003812,0,0,-9,642.9832,159.75)"/>
<use data-text="u" xlink:href="#font_1_6" transform="matrix(9.003812,0,0,-9,648.8897,159.75)"/>
<use data-text="d" xlink:href="#font_1_19" transform="matrix(9.003812,0,0,-9,653.8958,159.75)"/>
<use data-text="i" xlink:href="#font_1_3" transform="matrix(9.003812,0,0,-9,658.9019,159.75)"/>
<use data-text="o" xlink:href="#font_1_12" transform="matrix(9.003812,0,0,-9,660.90078,159.75)"/>
<use data-text="S" xlink:href="#font_1_7" transform="matrix(9.003812,0,0,-9,665.90689,159.75)"/>
<use data-text="y" xlink:href="#font_1_20" transform="matrix(9.003812,0,0,-9,671.8404,159.75)"/>
<use data-text="s" xlink:href="#font_1_10" transform="matrix(9.003812,0,0,-9,676.2252,159.75)"/>
<use data-text="t" xlink:href="#font_1_8" transform="matrix(9.003812,0,0,-9,680.7001,159.75)"/>
<use data-text="e" xlink:href="#font_1_5" transform="matrix(9.003812,0,0,-9,683.0771,159.75)"/>
<use data-text="m" xlink:href="#font_1_21" transform="matrix(9.003812,0,0,-9,688.0832,159.75)"/>
<path transform="matrix(1,0,0,.999577,0,0)" stroke-width=".750318" stroke-linecap="butt" stroke-miterlimit="10" stroke-linejoin="miter" fill="none" stroke="#000000" d="M931.895 130.555H823.098V78.033H719.082"/>
<path transform="matrix(1,0,0,.999577,0,0)" d="M715.145 78.033 720.395 75.407 719.082 78.033 720.395 80.659ZM715.145 78.033"/>
<path transform="matrix(1,0,0,.999577,0,0)" stroke-width=".750318" stroke-linecap="butt" stroke-miterlimit="10" stroke-linejoin="miter" fill="none" stroke="#000000" d="M715.145 78.033 720.395 75.407 719.082 78.033 720.395 80.659ZM715.145 78.033"/>
<use data-text="g" xlink:href="#font_1_9" transform="matrix(9.003812,0,0,-9,732.8878,69.75)"/>
<use data-text="e" xlink:href="#font_1_5" transform="matrix(9.003812,0,0,-9,737.8489,69.75)"/>
<use data-text="t" xlink:href="#font_1_8" transform="matrix(9.003812,0,0,-9,742.7739,69.75)"/>
<use data-text="/" xlink:href="#font_1_22" transform="matrix(9.003812,0,0,-9,745.277,69.75)"/>
<use data-text="s" xlink:href="#font_1_10" transform="matrix(9.003812,0,0,-9,747.78,69.75)"/>
<use data-text="e" xlink:href="#font_1_5" transform="matrix(9.003812,0,0,-9,752.2819,69.75)"/>
<use data-text="t" xlink:href="#font_1_8" transform="matrix(9.003812,0,0,-9,757.207,69.75)"/>
<use data-text=" " xlink:href="#font_1_23" transform="matrix(9.003812,0,0,-9,759.71,69.75)"/>
<use data-text="s" xlink:href="#font_1_10" transform="matrix(9.003812,0,0,-9,762.2131,69.75)"/>
<use data-text="e" xlink:href="#font_1_5" transform="matrix(9.003812,0,0,-9,766.71499,69.75)"/>
<use data-text="t" xlink:href="#font_1_8" transform="matrix(9.003812,0,0,-9,771.64,69.75)"/>
<use data-text="t" xlink:href="#font_1_8" transform="matrix(9.003812,0,0,-9,774.33218,69.75)"/>
<use data-text="i" xlink:href="#font_1_3" transform="matrix(9.003812,0,0,-9,776.79019,69.75)"/>
<use data-text="n" xlink:href="#font_1_4" transform="matrix(9.003812,0,0,-9,778.789,69.75)"/>
<use data-text="g" xlink:href="#font_1_9" transform="matrix(9.003812,0,0,-9,783.7951,69.75)"/>
<use data-text="s" xlink:href="#font_1_10" transform="matrix(9.003812,0,0,-9,788.75619,69.75)"/>
<path transform="matrix(1,0,0,.999577,0,0)" d="M66.777 405.172V387.914H216.844V405.172" fill="#ffffff"/>
<path transform="matrix(1,0,0,.999577,0,0)" stroke-width=".750318" stroke-linecap="butt" stroke-miterlimit="10" stroke-linejoin="miter" fill="none" stroke="#000000" d="M66.777 405.172V387.914H216.844V405.172"/>
<path transform="matrix(1,0,0,.999577,0,0)" stroke-width=".750318" stroke-linecap="butt" stroke-miterlimit="10" stroke-linejoin="miter" fill="none" stroke="#000000" d="M66.777 405.172V680.538H216.844V405.172"/>
<path transform="matrix(1,0,0,.999577,0,0)" stroke-width=".750318" stroke-linecap="butt" stroke-miterlimit="10" stroke-linejoin="miter" fill="none" stroke="#000000" d="M66.777 405.172H216.844"/>
<use data-text="H" xlink:href="#font_0_11" transform="matrix(9.003812,0,0,-9,109.22074,399)"/>
<use data-text="u" xlink:href="#font_0_4" transform="matrix(9.003812,0,0,-9,115.7215,399)"/>
<use data-text="d" xlink:href="#font_0_12" transform="matrix(9.003812,0,0,-9,121.222827,399)"/>
<use data-text="S" xlink:href="#font_0_5" transform="matrix(9.003812,0,0,-9,126.72415,399)"/>
<use data-text="u" xlink:href="#font_0_4" transform="matrix(9.003812,0,0,-9,132.72969,399)"/>
<use data-text="b" xlink:href="#font_0_6" transform="matrix(9.003812,0,0,-9,138.23102,399)"/>
<use data-text="s" xlink:href="#font_0_7" transform="matrix(9.003812,0,0,-9,143.73235,399)"/>
<use data-text="y" xlink:href="#font_0_8" transform="matrix(9.003812,0,0,-9,148.5854,399)"/>
<use data-text="s" xlink:href="#font_0_7" transform="matrix(9.003812,0,0,-9,153.42946,399)"/>
<use data-text="t" xlink:href="#font_0_9" transform="matrix(9.003812,0,0,-9,158.43558,399)"/>
<use data-text="e" xlink:href="#font_0_2" transform="matrix(9.003812,0,0,-9,161.38884,399)"/>
<use data-text="m" xlink:href="#font_0_10" transform="matrix(9.003812,0,0,-9,166.39496,399)"/>
<path transform="matrix(1,0,0,.999577,0,0)" d="M96.789 417.927H186.828V462.946H96.789Z" fill="#ffffff"/>
<path transform="matrix(1,0,0,.999577,0,0)" stroke-width=".750318" stroke-linecap="butt" stroke-miterlimit="4" stroke-linejoin="miter" fill="none" stroke="#000000" d="M96.789 417.927H186.828V462.946H96.789Z"/>
<use data-text="M" xlink:href="#font_1_1" transform="matrix(9.003812,0,0,-9,128.39437,443.25)"/>
<use data-text="o" xlink:href="#font_1_12" transform="matrix(9.003812,0,0,-9,135.89455,443.25)"/>
<use data-text="n" xlink:href="#font_1_4" transform="matrix(9.003812,0,0,-9,140.90067,443.25)"/>
<use data-text="e" xlink:href="#font_1_5" transform="matrix(9.003812,0,0,-9,145.90679,443.25)"/>
<use data-text="y" xlink:href="#font_1_20" transform="matrix(9.003812,0,0,-9,150.72382,443.25)"/>
<path transform="matrix(1,0,0,.999577,0,0)" d="M96.789 480.203H186.828V525.222H96.789Z" fill="#ffffff"/>
<path transform="matrix(1,0,0,.999577,0,0)" stroke-width=".750318" stroke-linecap="butt" stroke-miterlimit="4" stroke-linejoin="miter" fill="none" stroke="#000000" d="M96.789 480.203H186.828V525.222H96.789Z"/>
<use data-text="F" xlink:href="#font_1_24" transform="matrix(9.003812,0,0,-9,118.54869,505.5)"/>
<use data-text="a" xlink:href="#font_1_2" transform="matrix(9.003812,0,0,-9,123.74389,505.5)"/>
<use data-text="m" xlink:href="#font_1_21" transform="matrix(9.003812,0,0,-9,128.75002,505.5)"/>
<use data-text="i" xlink:href="#font_1_3" transform="matrix(9.003812,0,0,-9,136.2502,505.5)"/>
<use data-text="l" xlink:href="#font_1_16" transform="matrix(9.003812,0,0,-9,138.24904,505.5)"/>
<use data-text="y" xlink:href="#font_1_20" transform="matrix(9.003812,0,0,-9,140.20287,505.5)"/>
<use data-text="S" xlink:href="#font_1_7" transform="matrix(9.003812,0,0,-9,144.70478,505.5)"/>
<use data-text="t" xlink:href="#font_1_8" transform="matrix(9.003812,0,0,-9,150.6743,505.5)"/>
<use data-text="a" xlink:href="#font_1_2" transform="matrix(9.003812,0,0,-9,153.17737,505.5)"/>
<use data-text="t" xlink:href="#font_1_8" transform="matrix(9.003812,0,0,-9,158.06644,505.5)"/>
<use data-text="s" xlink:href="#font_1_10" transform="matrix(9.003812,0,0,-9,160.5695,505.5)"/>
<path transform="matrix(1,0,0,.999577,0,0)" d="M96.789 543.23H186.828V588.24899H96.789Z" fill="#ffffff"/>
<path transform="matrix(1,0,0,.999577,0,0)" stroke-width=".750318" stroke-linecap="butt" stroke-miterlimit="4" stroke-linejoin="miter" fill="none" stroke="#000000" d="M96.789 543.23H186.828V588.24899H96.789Z"/>
<use data-text="S" xlink:href="#font_1_7" transform="matrix(9.003812,0,0,-9,131.62673,568.5)"/>
<use data-text="t" xlink:href="#font_1_8" transform="matrix(9.003812,0,0,-9,137.59626,568.5)"/>
<use data-text="a" xlink:href="#font_1_2" transform="matrix(9.003812,0,0,-9,140.09932,568.5)"/>
<use data-text="t" xlink:href="#font_1_8" transform="matrix(9.003812,0,0,-9,144.98839,568.5)"/>
<use data-text="s" xlink:href="#font_1_10" transform="matrix(9.003812,0,0,-9,147.49146,568.5)"/>
<path transform="matrix(1,0,0,.999577,0,0)" d="M96.789 605.506H186.828V650.52499H96.789Z" fill="#ffffff"/>
<path transform="matrix(1,0,0,.999577,0,0)" stroke-width=".750318" stroke-linecap="butt" stroke-miterlimit="4" stroke-linejoin="miter" fill="none" stroke="#000000" d="M96.789 605.506H186.828V650.52499H96.789Z"/>
<use data-text="P" xlink:href="#font_1_25" transform="matrix(9.003812,0,0,-9,117.90943,630.75)"/>
<use data-text="a" xlink:href="#font_1_2" transform="matrix(9.003812,0,0,-9,123.671878,630.75)"/>
<use data-text="u" xlink:href="#font_1_6" transform="matrix(9.003812,0,0,-9,128.678,630.75)"/>
<use data-text="s" xlink:href="#font_1_10" transform="matrix(9.003812,0,0,-9,133.68412,630.75)"/>
<use data-text="e" xlink:href="#font_1_5" transform="matrix(9.003812,0,0,-9,138.18602,630.75)"/>
<use data-text="M" xlink:href="#font_1_1" transform="matrix(9.003812,0,0,-9,143.19214,630.75)"/>
<use data-text="e" xlink:href="#font_1_5" transform="matrix(9.003812,0,0,-9,150.69232,630.75)"/>
<use data-text="n" xlink:href="#font_1_4" transform="matrix(9.003812,0,0,-9,155.69844,630.75)"/>
<use data-text="u" xlink:href="#font_1_6" transform="matrix(9.003812,0,0,-9,160.70456,630.75)"/>
<path transform="matrix(1,0,0,.999577,0,0)" d="M24.012 54.023V36.766H174.074V54.023" fill="#ffffff"/>
<path transform="matrix(1,0,0,.999577,0,0)" stroke-width=".750318" stroke-linecap="butt" stroke-miterlimit="10" stroke-linejoin="miter" fill="none" stroke="#000000" d="M24.012 54.023V36.766H174.074V54.023"/>
<path transform="matrix(1,0,0,.999577,0,0)" stroke-width=".750318" stroke-linecap="butt" stroke-miterlimit="10" stroke-linejoin="miter" fill="none" stroke="#000000" d="M24.012 54.023V194.332H174.074V54.023"/>
<path transform="matrix(1,0,0,.999577,0,0)" stroke-width=".750318" stroke-linecap="butt" stroke-miterlimit="10" stroke-linejoin="miter" fill="none" stroke="#000000" d="M24.012 54.023H174.074"/>
<use data-text="F" xlink:href="#font_0_13" transform="matrix(9.003812,0,0,-9,88.800098,48)"/>
<use data-text="i" xlink:href="#font_0_14" transform="matrix(9.003812,0,0,-9,94.22939,48)"/>
<use data-text="l" xlink:href="#font_0_15" transform="matrix(9.003812,0,0,-9,96.73245,48)"/>
<use data-text="e" xlink:href="#font_0_2" transform="matrix(9.003812,0,0,-9,99.23551,48)"/>
<use data-text="s" xlink:href="#font_0_7" transform="matrix(9.003812,0,0,-9,104.27765,48)"/>
<path transform="matrix(1,0,0,.999577,0,0)" d="M54.023 66.778H144.062V111.797H54.023Z" fill="#ffffff"/>
<path transform="matrix(1,0,0,.999577,0,0)" stroke-width=".750318" stroke-linecap="butt" stroke-miterlimit="4" stroke-linejoin="miter" fill="none" stroke="#000000" d="M54.023 66.778H144.062V111.797H54.023Z"/>
<use data-text="S" xlink:href="#font_1_7" transform="matrix(9.003812,0,0,-9,75.5735,92.25)"/>
<use data-text="e" xlink:href="#font_1_5" transform="matrix(9.003812,0,0,-9,81.55203,92.25)"/>
<use data-text="t" xlink:href="#font_1_8" transform="matrix(9.003812,0,0,-9,86.47712,92.25)"/>
<use data-text="t" xlink:href="#font_1_8" transform="matrix(9.003812,0,0,-9,89.16926,92.25)"/>
<use data-text="i" xlink:href="#font_1_3" transform="matrix(9.003812,0,0,-9,91.6273,92.25)"/>
<use data-text="n" xlink:href="#font_1_4" transform="matrix(9.003812,0,0,-9,93.626148,92.25)"/>
<use data-text="g" xlink:href="#font_1_9" transform="matrix(9.003812,0,0,-9,98.63226,92.25)"/>
<use data-text="s" xlink:href="#font_1_10" transform="matrix(9.003812,0,0,-9,103.59336,92.25)"/>
<use data-text="F" xlink:href="#font_1_24" transform="matrix(9.003812,0,0,-9,108.09527,92.25)"/>
<use data-text="i" xlink:href="#font_1_3" transform="matrix(9.003812,0,0,-9,113.50656,92.25)"/>
<use data-text="l" xlink:href="#font_1_16" transform="matrix(9.003812,0,0,-9,115.50541,92.25)"/>
<use data-text="e" xlink:href="#font_1_5" transform="matrix(9.003812,0,0,-9,117.50426,92.25)"/>
<path transform="matrix(1,0,0,.999577,0,0)" d="M54.023 126.804H144.062V171.823H54.023Z" fill="#ffffff"/>
<path transform="matrix(1,0,0,.999577,0,0)" stroke-width=".750318" stroke-linecap="butt" stroke-miterlimit="4" stroke-linejoin="miter" fill="none" stroke="#000000" d="M54.023 126.804H144.062V171.823H54.023Z"/>
<use data-text="S" xlink:href="#font_1_7" transform="matrix(9.003812,0,0,-9,78.13509,152.25)"/>
<use data-text="a" xlink:href="#font_1_2" transform="matrix(9.003812,0,0,-9,84.077617,152.25)"/>
<use data-text="v" xlink:href="#font_1_15" transform="matrix(9.003812,0,0,-9,88.903659,152.25)"/>
<use data-text="e" xlink:href="#font_1_5" transform="matrix(9.003812,0,0,-9,93.22549,152.25)"/>
<use data-text="F" xlink:href="#font_1_24" transform="matrix(9.003812,0,0,-9,98.231609,152.25)"/>
<use data-text="i" xlink:href="#font_1_3" transform="matrix(9.003812,0,0,-9,103.6429,152.25)"/>
<use data-text="l" xlink:href="#font_1_16" transform="matrix(9.003812,0,0,-9,105.64175,152.25)"/>
<use data-text="e" xlink:href="#font_1_5" transform="matrix(9.003812,0,0,-9,107.640598,152.25)"/>
<use data-text="." xlink:href="#font_1_26" transform="matrix(9.003812,0,0,-9,112.43963,152.25)"/>
<use data-text="." xlink:href="#font_1_26" transform="matrix(9.003812,0,0,-9,114.94269,152.25)"/>
<use data-text="." xlink:href="#font_1_26" transform="matrix(9.003812,0,0,-9,117.44575,152.25)"/>
<path transform="matrix(1,0,0,.999577,0,0)" stroke-width=".750318" stroke-linecap="butt" stroke-miterlimit="10" stroke-linejoin="miter" fill="none" stroke="#000000" d="M691.793 325.638H729.309V216.842H691.793V184.105"/>
<path transform="matrix(1,0,0,.999577,0,0)" d="M691.793 180.166 694.418 185.418 691.793 184.105 689.168 185.418ZM691.793 180.166"/>
<path transform="matrix(1,0,0,.999577,0,0)" stroke-width=".750318" stroke-linecap="butt" stroke-miterlimit="10" stroke-linejoin="miter" fill="none" stroke="#000000" d="M691.793 180.166 694.418 185.418 691.793 184.105 689.168 185.418ZM691.793 180.166"/>
<path transform="matrix(1,0,0,.999577,0,0)" stroke-width=".750318" stroke-linecap="butt" stroke-miterlimit="10" stroke-linejoin="miter" fill="none" stroke="#000000" d="M579.246 254.358V239.351H141.809V383.135"/>
<path transform="matrix(1,0,0,.999577,0,0)" d="M141.809 387.074 139.184 381.822 141.809 383.135 144.438 381.822ZM141.809 387.074"/>
<path transform="matrix(1,0,0,.999577,0,0)" stroke-width=".750318" stroke-linecap="butt" stroke-miterlimit="10" stroke-linejoin="miter" fill="none" stroke="#000000" d="M141.809 387.074 139.184 381.822 141.809 383.135 144.438 381.822ZM141.809 387.074"/>
<path transform="matrix(1,0,0,.999577,0,0)" d="M541.73 271.615V254.358H691.793V271.615" fill="#ffffff"/>
<path transform="matrix(1,0,0,.999577,0,0)" stroke-width=".750318" stroke-linecap="butt" stroke-miterlimit="10" stroke-linejoin="miter" fill="none" stroke="#000000" d="M541.73 271.615V254.358H691.793V271.615"/>
<path transform="matrix(1,0,0,.999577,0,0)" stroke-width=".750318" stroke-linecap="butt" stroke-miterlimit="10" stroke-linejoin="miter" fill="none" stroke="#000000" d="M541.73 271.615V539.478H691.793V271.615"/>
<path transform="matrix(1,0,0,.999577,0,0)" stroke-width=".750318" stroke-linecap="butt" stroke-miterlimit="10" stroke-linejoin="miter" fill="none" stroke="#000000" d="M541.73 271.615H691.793"/>
<use data-text="E" xlink:href="#font_0_16" transform="matrix(9.003812,0,0,-9,565.53396,265.5)"/>
<use data-text="n" xlink:href="#font_0_3" transform="matrix(9.003812,0,0,-9,571.5395,265.5)"/>
<use data-text="v" xlink:href="#font_0_17" transform="matrix(9.003812,0,0,-9,576.8428,265.5)"/>
<use data-text="i" xlink:href="#font_0_14" transform="matrix(9.003812,0,0,-9,581.80386,265.5)"/>
<use data-text="r" xlink:href="#font_0_18" transform="matrix(9.003812,0,0,-9,584.3069,265.5)"/>
<use data-text="o" xlink:href="#font_0_19" transform="matrix(9.003812,0,0,-9,587.8094,265.5)"/>
<use data-text="n" xlink:href="#font_0_3" transform="matrix(9.003812,0,0,-9,593.3107,265.5)"/>
<use data-text="m" xlink:href="#font_0_10" transform="matrix(9.003812,0,0,-9,598.8121,265.5)"/>
<use data-text="e" xlink:href="#font_0_2" transform="matrix(9.003812,0,0,-9,606.81649,265.5)"/>
<use data-text="n" xlink:href="#font_0_3" transform="matrix(9.003812,0,0,-9,611.8226,265.5)"/>
<use data-text="t" xlink:href="#font_0_9" transform="matrix(9.003812,0,0,-9,617.3239,265.5)"/>
<use data-text="S" xlink:href="#font_0_5" transform="matrix(9.003812,0,0,-9,620.3222,265.5)"/>
<use data-text="u" xlink:href="#font_0_4" transform="matrix(9.003812,0,0,-9,626.32778,265.5)"/>
<use data-text="b" xlink:href="#font_0_6" transform="matrix(9.003812,0,0,-9,631.8291,265.5)"/>
<use data-text="s" xlink:href="#font_0_7" transform="matrix(9.003812,0,0,-9,637.33047,265.5)"/>
<use data-text="y" xlink:href="#font_0_8" transform="matrix(9.003812,0,0,-9,642.1745,265.5)"/>
<use data-text="s" xlink:href="#font_0_7" transform="matrix(9.003812,0,0,-9,647.01858,265.5)"/>
<use data-text="t" xlink:href="#font_0_9" transform="matrix(9.003812,0,0,-9,652.02468,265.5)"/>
<use data-text="e" xlink:href="#font_0_2" transform="matrix(9.003812,0,0,-9,654.9779,265.5)"/>
<use data-text="m" xlink:href="#font_0_10" transform="matrix(9.003812,0,0,-9,659.984,265.5)"/>
<path transform="matrix(1,0,0,.999577,0,0)" d="M571.742 284.37H661.781V329.389H571.742Z" fill="#ffffff"/>
<path transform="matrix(1,0,0,.999577,0,0)" stroke-width=".750318" stroke-linecap="butt" stroke-miterlimit="4" stroke-linejoin="miter" fill="none" stroke="#000000" d="M571.742 284.37H661.781V329.389H571.742Z"/>
<use data-text="O" xlink:href="#font_1_27" transform="matrix(9.003812,0,0,-9,604.9751,309.75)"/>
<use data-text="&#xfb03;" xlink:href="#font_2_1" transform="matrix(9.003812,0,0,-9,611.98007,309.75)"/>
<use data-text="c" xlink:href="#font_1_17" transform="matrix(9.003812,0,0,-9,618.985,309.75)"/>
<use data-text="e" xlink:href="#font_1_5" transform="matrix(9.003812,0,0,-9,623.5409,309.75)"/>
<path transform="matrix(1,0,0,.999577,0,0)" d="M571.742 344.396H661.781V389.415H571.742Z" fill="#ffffff"/>
<path transform="matrix(1,0,0,.999577,0,0)" stroke-width=".750318" stroke-linecap="butt" stroke-miterlimit="4" stroke-linejoin="miter" fill="none" stroke="#000000" d="M571.742 344.396H661.781V389.415H571.742Z"/>
<use data-text="C" xlink:href="#font_1_11" transform="matrix(9.003812,0,0,-9,596.363,369.75)"/>
<use data-text="a" xlink:href="#font_1_2" transform="matrix(9.003812,0,0,-9,602.72866,369.75)"/>
<use data-text="r" xlink:href="#font_1_14" transform="matrix(9.003812,0,0,-9,607.73477,369.75)"/>
<use data-text="R" xlink:href="#font_1_28" transform="matrix(9.003812,0,0,-9,610.73306,369.75)"/>
<use data-text="e" xlink:href="#font_1_5" transform="matrix(9.003812,0,0,-9,617.14376,369.75)"/>
<use data-text="p" xlink:href="#font_1_29" transform="matrix(9.003812,0,0,-9,622.14987,369.75)"/>
<use data-text="a" xlink:href="#font_1_2" transform="matrix(9.003812,0,0,-9,627.15597,369.75)"/>
<use data-text="i" xlink:href="#font_1_3" transform="matrix(9.003812,0,0,-9,632.16207,369.75)"/>
<use data-text="r" xlink:href="#font_1_14" transform="matrix(9.003812,0,0,-9,634.1609,369.75)"/>
<path transform="matrix(1,0,0,.999577,0,0)" d="M571.742 404.421H661.781V449.44H571.742Z" fill="#ffffff"/>
<path transform="matrix(1,0,0,.999577,0,0)" stroke-width=".750318" stroke-linecap="butt" stroke-miterlimit="4" stroke-linejoin="miter" fill="none" stroke="#000000" d="M571.742 404.421H661.781V449.44H571.742Z"/>
<use data-text="S" xlink:href="#font_1_7" transform="matrix(9.003812,0,0,-9,606.27169,429.75)"/>
<use data-text="h" xlink:href="#font_1_30" transform="matrix(9.003812,0,0,-9,612.2322,429.75)"/>
<use data-text="o" xlink:href="#font_1_12" transform="matrix(9.003812,0,0,-9,617.2383,429.75)"/>
<use data-text="p" xlink:href="#font_1_29" transform="matrix(9.003812,0,0,-9,622.2444,429.75)"/>
<path transform="matrix(1,0,0,.999577,0,0)" d="M571.742 464.447H661.781V509.466H571.742Z" fill="#ffffff"/>
<path transform="matrix(1,0,0,.999577,0,0)" stroke-width=".750318" stroke-linecap="butt" stroke-miterlimit="4" stroke-linejoin="miter" fill="none" stroke="#000000" d="M571.742 464.447H661.781V509.466H571.742Z"/>
<use data-text="G" xlink:href="#font_1_31" transform="matrix(9.003812,0,0,-9,604.78158,489.75)"/>
<use data-text="u" xlink:href="#font_1_6" transform="matrix(9.003812,0,0,-9,611.7865,489.75)"/>
<use data-text="l" xlink:href="#font_1_16" transform="matrix(9.003812,0,0,-9,616.7926,489.75)"/>
<use data-text="a" xlink:href="#font_1_2" transform="matrix(9.003812,0,0,-9,618.79147,489.75)"/>
<use data-text="g" xlink:href="#font_1_9" transform="matrix(9.003812,0,0,-9,623.7345,489.75)"/>
<path transform="matrix(1,0,0,.999577,0,0)" stroke-width=".750318" stroke-linecap="butt" stroke-miterlimit="10" stroke-linejoin="miter" fill="none" stroke="#000000" d="M186.828 624.264H811.844V153.065H927.113"/>
<path transform="matrix(1,0,0,.999577,0,0)" d="M931.055 153.065 925.801 155.691 927.113 153.065 925.801 150.439ZM931.055 153.065"/>
<path transform="matrix(1,0,0,.999577,0,0)" stroke-width=".750318" stroke-linecap="butt" stroke-miterlimit="10" stroke-linejoin="miter" fill="none" stroke="#000000" d="M931.055 153.065 925.801 155.691 927.113 153.065 925.801 150.439ZM931.055 153.065"/>
<use data-text="o" xlink:href="#font_1_12" transform="matrix(9.003812,0,0,-9,225.58751,613.5)"/>
<use data-text="p" xlink:href="#font_1_29" transform="matrix(9.003812,0,0,-9,230.59363,613.5)"/>
<use data-text="e" xlink:href="#font_1_5" transform="matrix(9.003812,0,0,-9,235.59975,613.5)"/>
<use data-text="n" xlink:href="#font_1_4" transform="matrix(9.003812,0,0,-9,240.60587,613.5)"/>
<use data-text="s" xlink:href="#font_1_10" transform="matrix(9.003812,0,0,-9,557.5956,133.5)"/>
<use data-text="e" xlink:href="#font_1_5" transform="matrix(9.003812,0,0,-9,562.0975,133.5)"/>
<use data-text="t" xlink:href="#font_1_8" transform="matrix(9.003812,0,0,-9,567.0225,133.5)"/>
<use data-text=" " xlink:href="#font_1_23" transform="matrix(9.003812,0,0,-9,569.5256,133.5)"/>
<use data-text="v" xlink:href="#font_1_15" transform="matrix(9.003812,0,0,-9,572.0286,133.5)"/>
<use data-text="o" xlink:href="#font_1_12" transform="matrix(9.003812,0,0,-9,576.37747,133.5)"/>
<use data-text="l" xlink:href="#font_1_16" transform="matrix(9.003812,0,0,-9,581.38357,133.5)"/>
<use data-text="u" xlink:href="#font_1_6" transform="matrix(9.003812,0,0,-9,583.3824,133.5)"/>
<use data-text="m" xlink:href="#font_1_21" transform="matrix(9.003812,0,0,-9,588.3885,133.5)"/>
<use data-text="e" xlink:href="#font_1_5" transform="matrix(9.003812,0,0,-9,595.8887,133.5)"/>
<use data-text="s" xlink:href="#font_1_10" transform="matrix(9.003812,0,0,-9,741.0558,298.5)"/>
<use data-text="o" xlink:href="#font_1_12" transform="matrix(9.003812,0,0,-9,745.5577,298.5)"/>
<use data-text="u" xlink:href="#font_1_6" transform="matrix(9.003812,0,0,-9,750.5638,298.5)"/>
<use data-text="n" xlink:href="#font_1_4" transform="matrix(9.003812,0,0,-9,755.5699,298.5)"/>
<use data-text="d" xlink:href="#font_1_19" transform="matrix(9.003812,0,0,-9,760.576,298.5)"/>
<use data-text="s" xlink:href="#font_1_10" transform="matrix(9.003812,0,0,-9,765.5821,298.5)"/>
<path transform="matrix(1,0,0,.999577,0,0)" stroke-width=".750318" stroke-linecap="butt" stroke-miterlimit="10" stroke-linejoin="miter" fill="none" stroke="#000000" d="M354.148 325.638H104.293V383.135"/>
<path transform="matrix(1,0,0,.999577,0,0)" d="M104.293 387.074 101.668 381.822 104.293 383.135 106.922 381.822ZM104.293 387.074"/>
<path transform="matrix(1,0,0,.999577,0,0)" stroke-width=".750318" stroke-linecap="butt" stroke-miterlimit="10" stroke-linejoin="miter" fill="none" stroke="#000000" d="M104.293 387.074 101.668 381.822 104.293 383.135 106.922 381.822ZM104.293 387.074"/>
<path transform="matrix(1,0,0,.999577,0,0)" stroke-width=".750318" stroke-linecap="butt" stroke-miterlimit="10" stroke-linejoin="miter" fill="none" stroke="#000000" d="M466.699 254.358V216.842H646.773V184.105"/>
<path transform="matrix(1,0,0,.999577,0,0)" d="M646.773 180.166 649.398 185.418 646.773 184.105 644.148 185.418ZM646.773 180.166"/>
<path transform="matrix(1,0,0,.999577,0,0)" stroke-width=".750318" stroke-linecap="butt" stroke-miterlimit="10" stroke-linejoin="miter" fill="none" stroke="#000000" d="M646.773 180.166 649.398 185.418 646.773 184.105 644.148 185.418ZM646.773 180.166"/>
<path transform="matrix(1,0,0,.999577,0,0)" d="M354.148 271.615V254.358H504.215V271.615" fill="#ffffff"/>
<path transform="matrix(1,0,0,.999577,0,0)" stroke-width=".750318" stroke-linecap="butt" stroke-miterlimit="10" stroke-linejoin="miter" fill="none" stroke="#000000" d="M354.148 271.615V254.358H504.215V271.615"/>
<path transform="matrix(1,0,0,.999577,0,0)" stroke-width=".750318" stroke-linecap="butt" stroke-miterlimit="10" stroke-linejoin="miter" fill="none" stroke="#000000" d="M354.148 271.615V539.478H504.215V271.615"/>
<path transform="matrix(1,0,0,.999577,0,0)" stroke-width=".750318" stroke-linecap="butt" stroke-miterlimit="10" stroke-linejoin="miter" fill="none" stroke="#000000" d="M354.148 271.615H504.215"/>
<use data-text="I" xlink:href="#font_0_20" transform="matrix(9.003812,0,0,-9,371.37727,265.5)"/>
<use data-text="n" xlink:href="#font_0_3" transform="matrix(9.003812,0,0,-9,373.8803,265.5)"/>
<use data-text="t" xlink:href="#font_0_9" transform="matrix(9.003812,0,0,-9,379.38166,265.5)"/>
<use data-text="e" xlink:href="#font_0_2" transform="matrix(9.003812,0,0,-9,382.3439,265.5)"/>
<use data-text="r" xlink:href="#font_0_18" transform="matrix(9.003812,0,0,-9,387.35005,265.5)"/>
<use data-text="a" xlink:href="#font_0_21" transform="matrix(9.003812,0,0,-9,390.89753,265.5)"/>
<use data-text="c" xlink:href="#font_0_22" transform="matrix(9.003812,0,0,-9,395.90367,265.5)"/>
<use data-text="t" xlink:href="#font_0_9" transform="matrix(9.003812,0,0,-9,400.9098,265.5)"/>
<use data-text="i" xlink:href="#font_0_14" transform="matrix(9.003812,0,0,-9,403.90806,265.5)"/>
<use data-text="o" xlink:href="#font_0_19" transform="matrix(9.003812,0,0,-9,406.4111,265.5)"/>
<use data-text="n" xlink:href="#font_0_3" transform="matrix(9.003812,0,0,-9,411.91246,265.5)"/>
<use data-text="s" xlink:href="#font_0_7" transform="matrix(9.003812,0,0,-9,417.4138,265.5)"/>
<use data-text="A" xlink:href="#font_0_23" transform="matrix(9.003812,0,0,-9,422.41993,265.5)"/>
<use data-text="n" xlink:href="#font_0_3" transform="matrix(9.003812,0,0,-9,428.9207,265.5)"/>
<use data-text="d" xlink:href="#font_0_12" transform="matrix(9.003812,0,0,-9,434.42204,265.5)"/>
<use data-text="C" xlink:href="#font_0_24" transform="matrix(9.003812,0,0,-9,439.92338,265.5)"/>
<use data-text="h" xlink:href="#font_0_25" transform="matrix(9.003812,0,0,-9,446.42414,265.5)"/>
<use data-text="a" xlink:href="#font_0_21" transform="matrix(9.003812,0,0,-9,451.92549,265.5)"/>
<use data-text="r" xlink:href="#font_0_18" transform="matrix(9.003812,0,0,-9,456.9316,265.5)"/>
<use data-text="a" xlink:href="#font_0_21" transform="matrix(9.003812,0,0,-9,460.4701,265.5)"/>
<use data-text="c" xlink:href="#font_0_22" transform="matrix(9.003812,0,0,-9,465.47624,265.5)"/>
<use data-text="t" xlink:href="#font_0_9" transform="matrix(9.003812,0,0,-9,470.48237,265.5)"/>
<use data-text="e" xlink:href="#font_0_2" transform="matrix(9.003812,0,0,-9,473.4536,265.5)"/>
<use data-text="r" xlink:href="#font_0_18" transform="matrix(9.003812,0,0,-9,478.45976,265.5)"/>
<use data-text="s" xlink:href="#font_0_7" transform="matrix(9.003812,0,0,-9,481.96223,265.5)"/>
<path transform="matrix(1,0,0,.999577,0,0)" d="M384.164 288.122H474.199V333.14103H384.164Z" fill="#ffffff"/>
<path transform="matrix(1,0,0,.999577,0,0)" stroke-width=".750318" stroke-linecap="butt" stroke-miterlimit="4" stroke-linejoin="miter" fill="none" stroke="#000000" d="M384.164 288.122H474.199V333.14103H384.164Z"/>
<use data-text="P" xlink:href="#font_1_25" transform="matrix(9.003812,0,0,-9,416.74745,313.5)"/>
<use data-text="l" xlink:href="#font_1_16" transform="matrix(9.003812,0,0,-9,422.5729,313.5)"/>
<use data-text="a" xlink:href="#font_1_2" transform="matrix(9.003812,0,0,-9,424.57176,313.5)"/>
<use data-text="y" xlink:href="#font_1_20" transform="matrix(9.003812,0,0,-9,429.33479,313.5)"/>
<use data-text="e" xlink:href="#font_1_5" transform="matrix(9.003812,0,0,-9,433.61158,313.5)"/>
<use data-text="r" xlink:href="#font_1_14" transform="matrix(9.003812,0,0,-9,438.6177,313.5)"/>
<path transform="matrix(1,0,0,.999577,0,0)" d="M384.164 351.899H474.199V396.918H384.164Z" fill="#ffffff"/>
<path transform="matrix(1,0,0,.999577,0,0)" stroke-width=".750318" stroke-linecap="butt" stroke-miterlimit="4" stroke-linejoin="miter" fill="none" stroke="#000000" d="M384.164 351.899H474.199V396.918H384.164Z"/>
<use data-text="F" xlink:href="#font_1_24" transform="matrix(9.003812,0,0,-9,399.59519,377.25)"/>
<use data-text="a" xlink:href="#font_1_2" transform="matrix(9.003812,0,0,-9,404.7904,377.25)"/>
<use data-text="m" xlink:href="#font_1_21" transform="matrix(9.003812,0,0,-9,409.79655,377.25)"/>
<use data-text="i" xlink:href="#font_1_3" transform="matrix(9.003812,0,0,-9,417.29673,377.25)"/>
<use data-text="l" xlink:href="#font_1_16" transform="matrix(9.003812,0,0,-9,419.29557,377.25)"/>
<use data-text="y" xlink:href="#font_1_20" transform="matrix(9.003812,0,0,-9,421.2494,377.25)"/>
<use data-text="M" xlink:href="#font_1_1" transform="matrix(9.003812,0,0,-9,425.75129,377.25)"/>
<use data-text="e" xlink:href="#font_1_5" transform="matrix(9.003812,0,0,-9,433.25148,377.25)"/>
<use data-text="m" xlink:href="#font_1_21" transform="matrix(9.003812,0,0,-9,438.2576,377.25)"/>
<use data-text="b" xlink:href="#font_1_32" transform="matrix(9.003812,0,0,-9,445.75779,377.25)"/>
<use data-text="e" xlink:href="#font_1_5" transform="matrix(9.003812,0,0,-9,450.76393,377.25)"/>
<use data-text="r" xlink:href="#font_1_14" transform="matrix(9.003812,0,0,-9,455.77006,377.25)"/>
<path transform="matrix(1,0,0,.999577,0,0)" d="M384.164 415.676H474.199V460.695H384.164Z" fill="#ffffff"/>
<path transform="matrix(1,0,0,.999577,0,0)" stroke-width=".750318" stroke-linecap="butt" stroke-miterlimit="4" stroke-linejoin="miter" fill="none" stroke="#000000" d="M384.164 415.676H474.199V460.695H384.164Z"/>
<use data-text="N" xlink:href="#font_1_33" transform="matrix(9.003812,0,0,-9,421.1773,441)"/>
<use data-text="p" xlink:href="#font_1_29" transform="matrix(9.003812,0,0,-9,427.67808,441)"/>
<use data-text="c" xlink:href="#font_1_17" transform="matrix(9.003812,0,0,-9,432.6842,441)"/>
<path transform="matrix(1,0,0,.999577,0,0)" d="M384.164 479.453H474.199V524.472H384.164Z" fill="#ffffff"/>
<path transform="matrix(1,0,0,.999577,0,0)" stroke-width=".750318" stroke-linecap="butt" stroke-miterlimit="4" stroke-linejoin="miter" fill="none" stroke="#000000" d="M384.164 479.453H474.199V524.472H384.164Z"/>
<use data-text="I" xlink:href="#font_1_34" transform="matrix(9.003812,0,0,-9,408.22984,504.75)"/>
<use data-text="n" xlink:href="#font_1_4" transform="matrix(9.003812,0,0,-9,410.73289,504.75)"/>
<use data-text="t" xlink:href="#font_1_8" transform="matrix(9.003812,0,0,-9,415.739,504.75)"/>
<use data-text="e" xlink:href="#font_1_5" transform="matrix(9.003812,0,0,-9,418.116,504.75)"/>
<use data-text="r" xlink:href="#font_1_14" transform="matrix(9.003812,0,0,-9,423.12214,504.75)"/>
<use data-text="a" xlink:href="#font_1_2" transform="matrix(9.003812,0,0,-9,426.08439,504.75)"/>
<use data-text="c" xlink:href="#font_1_17" transform="matrix(9.003812,0,0,-9,431.0905,504.75)"/>
<use data-text="t" xlink:href="#font_1_8" transform="matrix(9.003812,0,0,-9,435.66444,504.75)"/>
<use data-text="i" xlink:href="#font_1_3" transform="matrix(9.003812,0,0,-9,438.12248,504.75)"/>
<use data-text="o" xlink:href="#font_1_12" transform="matrix(9.003812,0,0,-9,440.1213,504.75)"/>
<use data-text="n" xlink:href="#font_1_4" transform="matrix(9.003812,0,0,-9,445.12745,504.75)"/>
<use data-text="s" xlink:href="#font_1_10" transform="matrix(9.003812,0,0,-9,534.7184,208.5)"/>
<use data-text="o" xlink:href="#font_1_12" transform="matrix(9.003812,0,0,-9,539.2203,208.5)"/>
<use data-text="u" xlink:href="#font_1_6" transform="matrix(9.003812,0,0,-9,544.2264,208.5)"/>
<use data-text="n" xlink:href="#font_1_4" transform="matrix(9.003812,0,0,-9,549.2325,208.5)"/>
<use data-text="d" xlink:href="#font_1_19" transform="matrix(9.003812,0,0,-9,554.2386,208.5)"/>
<use data-text="s" xlink:href="#font_1_10" transform="matrix(9.003812,0,0,-9,559.2447,208.5)"/>
<use data-text="i" xlink:href="#font_1_3" transform="matrix(9.003812,0,0,-9,305.6704,313.5)"/>
<use data-text="n" xlink:href="#font_1_4" transform="matrix(9.003812,0,0,-9,307.66926,313.5)"/>
<use data-text="f" xlink:href="#font_1_35" transform="matrix(9.003812,0,0,-9,312.67539,313.5)"/>
<use data-text="o" xlink:href="#font_1_12" transform="matrix(9.003812,0,0,-9,315.0884,313.5)"/>
<use data-text="i" xlink:href="#font_1_3" transform="matrix(9.003812,0,0,-9,305.6704,231)"/>
<use data-text="n" xlink:href="#font_1_4" transform="matrix(9.003812,0,0,-9,307.66926,231)"/>
<use data-text="f" xlink:href="#font_1_35" transform="matrix(9.003812,0,0,-9,312.67539,231)"/>
<use data-text="o" xlink:href="#font_1_12" transform="matrix(9.003812,0,0,-9,315.0884,231)"/>
<use data-text="s" xlink:href="#font_1_10" transform="matrix(9.003812,0,0,-9,560.06716,69.749988)"/>
<use data-text="a" xlink:href="#font_1_2" transform="matrix(9.003812,0,0,-9,564.56906,69.749988)"/>
<use data-text="v" xlink:href="#font_1_15" transform="matrix(9.003812,0,0,-9,569.38607,69.749988)"/>
<use data-text="e" xlink:href="#font_1_5" transform="matrix(9.003812,0,0,-9,573.7079,69.749988)"/>
<use data-text="/" xlink:href="#font_1_22" transform="matrix(9.003812,0,0,-9,578.714,69.749988)"/>
<use data-text="l" xlink:href="#font_1_16" transform="matrix(9.003812,0,0,-9,581.4061,69.749988)"/>
<use data-text="o" xlink:href="#font_1_12" transform="matrix(9.003812,0,0,-9,583.40499,69.749988)"/>
<use data-text="a" xlink:href="#font_1_2" transform="matrix(9.003812,0,0,-9,588.4111,69.749988)"/>
<use data-text="d" xlink:href="#font_1_19" transform="matrix(9.003812,0,0,-9,593.4172,69.749988)"/>
<path transform="matrix(1,0,0,.999577,0,0)" stroke-width=".750318" stroke-linecap="butt" stroke-miterlimit="10" stroke-linejoin="miter" fill="none" stroke="#000000" d="M379.383 153.065H264.113V160.568H148.84"/>
<path transform="matrix(1,0,0,.999577,0,0)" d="M383.324 153.065 378.07 155.691 379.383 153.065 378.07 150.439ZM383.324 153.065"/>
<path transform="matrix(1,0,0,.999577,0,0)" stroke-width=".750318" stroke-linecap="butt" stroke-miterlimit="10" stroke-linejoin="miter" fill="none" stroke="#000000" d="M383.324 153.065 378.07 155.691 379.383 153.065 378.07 150.439ZM383.324 153.065"/>
<path transform="matrix(1,0,0,.999577,0,0)" d="M144.902 160.568 150.152 157.942 148.84 160.568 150.152 163.194ZM144.902 160.568"/>
<path transform="matrix(1,0,0,.999577,0,0)" stroke-width=".750318" stroke-linecap="butt" stroke-miterlimit="10" stroke-linejoin="miter" fill="none" stroke="#000000" d="M144.902 160.568 150.152 157.942 148.84 160.568 150.152 163.194ZM144.902 160.568"/>
<path transform="matrix(1,0,0,.999577,0,0)" d="M384.164 119.301H474.199V164.32H384.164Z" fill="#ffffff"/>
<path transform="matrix(1,0,0,.999577,0,0)" stroke-width=".750318" stroke-linecap="butt" stroke-miterlimit="4" stroke-linejoin="miter" fill="none" stroke="#000000" d="M384.164 119.301H474.199V164.32H384.164Z"/>
<use data-text="S" xlink:href="#font_1_7" transform="matrix(9.003812,0,0,-9,419.13346,144.75)"/>
<use data-text="a" xlink:href="#font_1_2" transform="matrix(9.003812,0,0,-9,425.076,144.75)"/>
<use data-text="v" xlink:href="#font_1_15" transform="matrix(9.003812,0,0,-9,429.90205,144.75)"/>
<use data-text="e" xlink:href="#font_1_5" transform="matrix(9.003812,0,0,-9,434.22386,144.75)"/>
<use data-text="s" xlink:href="#font_1_10" transform="matrix(9.003812,0,0,-9,323.71708,143.25)"/>
<use data-text="a" xlink:href="#font_1_2" transform="matrix(9.003812,0,0,-9,328.21897,143.25)"/>
<use data-text="v" xlink:href="#font_1_15" transform="matrix(9.003812,0,0,-9,333.036,143.25)"/>
<use data-text="e" xlink:href="#font_1_5" transform="matrix(9.003812,0,0,-9,337.35783,143.25)"/>
<use data-text="/" xlink:href="#font_1_22" transform="matrix(9.003812,0,0,-9,342.36396,143.25)"/>
<use data-text="l" xlink:href="#font_1_16" transform="matrix(9.003812,0,0,-9,345.0561,143.25)"/>
<use data-text="o" xlink:href="#font_1_12" transform="matrix(9.003812,0,0,-9,347.05494,143.25)"/>
<use data-text="a" xlink:href="#font_1_2" transform="matrix(9.003812,0,0,-9,352.06108,143.25)"/>
<use data-text="d" xlink:href="#font_1_19" transform="matrix(9.003812,0,0,-9,357.0672,143.25)"/>
<path transform="matrix(1,0,0,.999577,0,0)" stroke-width=".750318" stroke-linecap="butt" stroke-miterlimit="10" stroke-linejoin="miter" fill="none" stroke="#000000" d="M931.895 261.861H849.359V29.262H429.184V114.521"/>
<path transform="matrix(1,0,0,.999577,0,0)" d="M429.184 118.46 426.555 113.208 429.184 114.521 431.809 113.208ZM429.184 118.46"/>
<path transform="matrix(1,0,0,.999577,0,0)" stroke-width=".750318" stroke-linecap="butt" stroke-miterlimit="10" stroke-linejoin="miter" fill="none" stroke="#000000" d="M429.184 118.46 426.555 113.208 429.184 114.521 431.809 113.208ZM429.184 118.46"/>
</g>
</svg>
